<?xml version="1.0" encoding="UTF-8" standalone="no"?>
<!DOCTYPE svg PUBLIC "-//W3C//DTD SVG 1.1//EN" "http://www.w3.org/Graphics/SVG/1.1/DTD/svg11.dtd">
<svg width="100%" height="100%" viewBox="0 0 48 48" version="1.1" xmlns="http://www.w3.org/2000/svg" xmlns:xlink="http://www.w3.org/1999/xlink" xml:space="preserve" xmlns:serif="http://www.serif.com/" style="fill-rule:evenodd;clip-rule:evenodd;stroke-linecap:round;stroke-linejoin:round;stroke-miterlimit:1.5;">
    <g transform="matrix(1,0,0,1,1,2.68182)">
        <path d="M6,25.318L6,15.318C6,13.267 7.048,11.357 8.779,10.256L17.386,4.779C17.556,4.647 17.769,4.568 18,4.568C18.552,4.568 19,5.016 19,5.568L19,11.791L24.971,7.466C27.075,5.936 29.925,5.936 32.029,7.466L37.529,11.466C39.081,12.595 40,14.399 40,16.318L40,26.318C40,28.238 39.081,30.042 37.529,31.171L32.029,35.171C29.925,36.701 27.075,36.701 24.971,35.171L19.471,31.171C18.78,30.668 18.215,30.032 17.8,29.312L7.537,35.844C7.382,35.943 7.198,36 7,36C6.448,36 6,35.552 6,35L6,29.818C6,29.465 6.183,29.155 6.459,28.977C6.46,28.977 10.595,26.318 10.595,26.318L7,26.318C6.448,26.318 6,25.87 6,25.318ZM17,7.394L9.852,11.943C8.699,12.678 8,13.95 8,15.318L8,24.318L14,24.318C14.552,24.318 15,24.766 15,25.318C15,25.671 14.817,25.981 14.541,26.159C14.54,26.16 8,30.364 8,30.364L8,33.178L16.963,27.475L27.963,20.475C28.118,20.376 28.302,20.318 28.5,20.318C29.052,20.318 29.5,20.766 29.5,21.318L29.5,25.318C29.5,25.87 29.052,26.318 28.5,26.318C27.948,26.318 27.5,25.87 27.5,25.318L27.5,23.14L19.49,28.237C19.77,28.749 20.162,29.2 20.647,29.553L26.147,33.553C27.55,34.573 29.45,34.573 30.853,33.553L36.353,29.553C37.388,28.8 38,27.598 38,26.318L38,16.318C38,15.038 37.388,13.836 36.353,13.083L30.853,9.083C29.45,8.063 27.55,8.063 26.147,9.083L18.588,14.563C18.417,14.688 18.212,14.755 18,14.755C17.679,14.754 17.38,14.602 17.191,14.343C17.066,14.171 17,13.967 17,13.755L17,7.394Z" style="fill:rgb(119,0,238);"/>
    </g>
    <path id="Original-Hexagon" serif:id="Original Hexagon" d="M29.5,33L35,29L35,19L29.5,15L24,19L24,29L29.5,33Z" style="fill:none;"/>
    <g transform="matrix(1,0,0,1,-15,-11)">
        <path d="M27,35L32,32" style="fill:none;stroke:rgb(119,0,238);stroke-width:2px;"/>
    </g>
</svg>
